<?xml version="1.0" standalone="no"?>
<!DOCTYPE svg PUBLIC "-//W3C//DTD SVG 1.1//EN" "http://www.w3.org/Graphics/SVG/1.1/DTD/svg11.dtd" >
<svg>
<metadata>
Created by FontForge 20090914 at Fri Feb 24 00:26:22 2012
 By root
Copyright (c) Kreative Korporation, 2001. All rights reserved.
</metadata>
<defs>
<font id="BerkeliumBitmap" horiz-adv-x="406" >
  <font-face 
    font-family="Berkelium Bitmap"
    font-weight="400"
    font-stretch="normal"
    units-per-em="1000"
    panose-1="0 0 0 0 0 0 0 0 0 0"
    ascent="800"
    descent="-200"
    x-height="551"
    cap-height="770"
    bbox="12 -222 1199 773"
    underline-thickness="50"
    underline-position="-75"
    unicode-range="U+0020-U+E001"
  />
<missing-glyph horiz-adv-x="500" 
 />
    <glyph glyph-name=".notdef" horiz-adv-x="500" 
 />
    <glyph glyph-name="space" unicode=" " horiz-adv-x="500" 
 />
    <glyph glyph-name="exclam" unicode="!" horiz-adv-x="394" 
d="M87 107v-107h217v107h-217v0zM87 770v-549h217v549h-217v0z" />
    <glyph glyph-name="quotedbl" unicode="&#x22;" horiz-adv-x="738" 
d="M93 773v-218h218v218h-218v0zM426 773v-218h218v218h-218v0z" />
    <glyph glyph-name="numbersign" unicode="#" horiz-adv-x="898" 
d="M171 220v-220h222v218h111v-218h222v220h109v111h-107v111h107v111h-109v220h-222v-218h-111v218h-222v-220h-109v-111h107v-111h-107v-111h109v0zM395 440h107v-107h-107v107v0z" />
    <glyph glyph-name="dollar" unicode="$" horiz-adv-x="919" 
d="M73 109v-109h664v109h109v111h-109v111h-111v111h-109v222h329v109h-664v-109h-109v-111h109v-111h111v-111h109v-222h-329v0zM517 218h107v-107h-107v107v0zM295 662h107v-107h-107v107v0z" />
    <glyph glyph-name="percent" unicode="%" horiz-adv-x="752" 
d="M488 218v-218h218v218h-218v0zM44 220v-109h220v109h111v111h111v111h111v111h109v109h-220v-109h-111v-111h-111v-111h-111v-111h-109v0zM44 773v-218h218v218h-218v0z" />
    <glyph glyph-name="ampersand" unicode="&#x26;" horiz-adv-x="900" 
d="M186 109v-109h444v109h111v222h109v111h-109v109h-222v-107h-220v220h440v109h-553v-109h-109v-222h107v-111h-107v-222h109v0zM299 329h218v-218h-218v218v0z" />
    <glyph glyph-name="quotesingle" unicode="'" 
d="M93 772v-217h217v217h-217v0z" />
    <glyph glyph-name="parenleft" unicode="(" horiz-adv-x="565" 
d="M265 -2v-109h220v109h-109v111h-109v444h109v111h109v109h-220v-109h-111v-111h-109v-444h109v-111h111v0z" />
    <glyph glyph-name="parenright" unicode=")" horiz-adv-x="565" 
d="M79 -2v-109h220v109h111v111h109v444h-109v111h-111v109h-220v-109h109v-111h109v-444h-109v-111h-109v0z" />
    <glyph glyph-name="asterisk" unicode="*" horiz-adv-x="876" 
d="M273 109v-109h331v109h220v111h-109v111h-109v111h109v111h109v109h-220v-107h-109v109h107v109h-331v-109h-220v-111h109v-111h109v-111h-109v-111h-109v-109h220v107h109v-109h-107v0zM495 218h107v-107h-107v107v0zM273 662h107v-107h-107v107v0z" />
    <glyph glyph-name="plus" unicode="+" horiz-adv-x="713" 
d="M245 220v-220h222v220h220v111h-220v220h-222v-220h-220v-111h220v0z" />
    <glyph glyph-name="comma" unicode="," horiz-adv-x="443" 
d="M58 -2v-109h219v109h109v109h-219v-109h-109v0z" />
    <glyph glyph-name="minus" unicode="-" horiz-adv-x="738" 
d="M93 329v-107h551v107h-551v0z" />
    <glyph glyph-name="period" unicode="." 
d="M93 107v-107h217v107h-217v0z" />
    <glyph glyph-name="slash" unicode="/" horiz-adv-x="802" 
d="M15 109v-109h220v109h111v111h111v111h111v111h111v111h109v109h-220v-109h-111v-111h-111v-111h-111v-111h-111v-111h-109v0z" />
    <glyph glyph-name="zero" unicode="0" horiz-adv-x="824" 
d="M190 109v-109h444v109h109v555h-109v109h-444v-109h-109v-555h109v0zM303 220h109v109h109v-218h-218v109v0zM303 662h218v-220h-109v-109h-109v329v0z" />
    <glyph glyph-name="one" unicode="1" horiz-adv-x="561" 
d="M66 109v-109h440v109h-109v664h-222v-109h-109v-111h107v-444h-107v0z" />
    <glyph glyph-name="two" unicode="2" horiz-adv-x="708" 
d="M85 331v-331h551v109h-329v222h220v111h109v222h-109v109h-442v-109h329v-222h-220v-111h-109v0z" />
    <glyph glyph-name="three" unicode="3" horiz-adv-x="697" 
d="M74 109v-109h442v109h109v222h-107v111h107v222h-109v109h-442v-109h329v-222h-218v-111h218v-222h-329v0z" />
    <glyph glyph-name="four" unicode="4" horiz-adv-x="772" 
d="M458 220v-220h220v773h-331v-109h-111v-111h-111v-111h-109v-222h442v0zM238 442h109v109h109v-218h-218v109v0z" />
    <glyph glyph-name="five" unicode="5" horiz-adv-x="713" 
d="M85 109v-109h442v109h109v333h-109v111h-220v111h329v109h-551v-331h329v-333h-329v0z" />
    <glyph glyph-name="six" unicode="6" horiz-adv-x="785" 
d="M175 109v-109h444v109h109v222h-109v111h-331v111h109v111h220v109h-331v-109h-111v-111h-109v-444h109v0zM288 329h218v-218h-218v218v0z" />
    <glyph glyph-name="seven" unicode="7" horiz-adv-x="749" 
d="M260 442v-442h220v442h111v111h109v220h-662v-109h440v-111h-109v-111h-109v0z" />
    <glyph glyph-name="eight" unicode="8" horiz-adv-x="812" 
d="M183 109v-109h444v109h109v222h-107v111h107v222h-109v109h-444v-109h-109v-222h107v-111h-107v-222h109v0zM296 329h218v-218h-218v218v0zM296 662h218v-218h-218v218v0z" />
    <glyph glyph-name="nine" unicode="9" horiz-adv-x="786" 
d="M168 109v-109h331v109h111v111h109v444h-109v109h-444v-109h-109v-222h109v-111h331v-111h-109v-111h-220v0zM279 662h218v-218h-218v218v0z" />
    <glyph glyph-name="colon" unicode=":" horiz-adv-x="338" 
d="M93 107v-107h217v107h-217v0zM93 438v-106h217v106h-217v0z" />
    <glyph glyph-name="semicolon" unicode=";" horiz-adv-x="435" 
d="M48 -2v-109h219v109h109v109h-219v-109h-109v0zM159 439v-107h217v107h-217v0z" />
    <glyph glyph-name="less" unicode="&#x3c;" horiz-adv-x="523" 
d="M240 220v-109h220v109h-109v111h-109v111h109v111h109v109h-220v-109h-111v-111h-109v-111h109v-111h111v0z" />
    <glyph glyph-name="equal" unicode="=" horiz-adv-x="576" 
d="M93 329v-107h440v107h-440v0zM93 551v-107h440v107h-440v0z" />
    <glyph glyph-name="greater" unicode="&#x3e;" horiz-adv-x="553" 
d="M93 220v-109h220v109h111v111h109v111h-109v111h-111v109h-220v-109h109v-111h109v-111h-109v-111h-109v0z" />
    <glyph glyph-name="question" unicode="?" horiz-adv-x="721" 
d="M250 107v-107h218v107h-218v0zM250 442v-220h220v220h111v111h109v111h-109v109h-444v-109h-109v-109h109v107h331v-109h-109v-111h-109v0z" />
    <glyph glyph-name="at" unicode="@" horiz-adv-x="927" 
d="M191 109v-109h553v109h-440v553h218v-109h-107v-331h440v442h-109v109h-555v-109h-109v-555h109v0zM526 440h107v-107h-107v107v0z" />
    <glyph glyph-name="A" unicode="A" horiz-adv-x="926" 
d="M76 553v-553h220v218h333v-218h220v553h-109v111h-111v109h-333v-109h-111v-111h-109v0zM298 553h109v109h111v-109h109v-220h-329v220v0z" />
    <glyph glyph-name="B" unicode="B" horiz-adv-x="830" 
d="M93 773v-773h553v109h109v222h-107v111h107v222h-109v109h-553v0zM315 329h218v-218h-218v218v0zM315 662h218v-218h-218v218v0z" />
    <glyph glyph-name="C" unicode="C" horiz-adv-x="811" 
d="M190 109v-109h553v109h-440v553h220v-107h220v109h-109v109h-444v-109h-109v-555h109v0z" />
    <glyph glyph-name="D" unicode="D" horiz-adv-x="836" 
d="M93 773v-773h553v109h109v555h-109v109h-553v0zM315 662h218v-551h-218v551v0z" />
    <glyph glyph-name="E" unicode="E" horiz-adv-x="723" 
d="M93 773v-773h551v109h-329v222h329v111h-329v222h329v109h-551v0z" />
    <glyph glyph-name="F" unicode="F" horiz-adv-x="667" 
d="M93 773v-773h220v331h331v111h-329v222h329v109h-551v0z" />
    <glyph glyph-name="G" unicode="G" horiz-adv-x="812" 
d="M190 109v-109h444v109h109v220h-329v-109h107v-109h-218v551h220v-107h220v109h-109v109h-444v-109h-109v-555h109v0z" />
    <glyph glyph-name="H" unicode="H" horiz-adv-x="960" 
d="M93 773v-773h220v329h333v-329h220v773h-220v-329h-333v329h-220v0z" />
    <glyph glyph-name="I" unicode="I" 
d="M93 770v-770h217v770h-217v0z" />
    <glyph glyph-name="J" unicode="J" horiz-adv-x="550" 
d="M25 109v-109h331v109h109v664h-220v-664h-220v0z" />
    <glyph glyph-name="K" unicode="K" horiz-adv-x="955" 
d="M93 773v-773h220v329h111v-109h111v-111h111v-109h220v109h-109v111h-111v111h-109v111h109v111h111v111h109v109h-220v-109h-111v-111h-111v-109h-111v329h-220v0z" />
    <glyph glyph-name="L" unicode="L" horiz-adv-x="558" 
d="M93 773v-773h440v109h-220v664h-220v0z" />
    <glyph glyph-name="M" unicode="M" horiz-adv-x="1182" 
d="M93 773v-773h220v553h109v111h-109v109h-220v0zM868 551v-551h220v773h-220v-109h-111v-111h-331v-111h109v-109h111v109h111v109h111v0z" />
    <glyph glyph-name="N" unicode="N" horiz-adv-x="960" 
d="M93 773v-773h220v440h111v-109h111v-111h111v-220h220v773h-220v-329h-111v109h-111v111h-111v109h-220v0z" />
    <glyph glyph-name="O" unicode="O" horiz-adv-x="938" 
d="M191 109v-109h555v109h109v555h-109v109h-555v-109h-109v-555h109v0zM304 662h329v-551h-329v551v0z" />
    <glyph glyph-name="P" unicode="P" horiz-adv-x="790" 
d="M93 773v-773h220v220h333v111h109v333h-109v109h-553v0zM315 662h218v-329h-218v329v0z" />
    <glyph glyph-name="Q" unicode="Q" horiz-adv-x="901" 
d="M496 -113v-109h220v109h-107v111h109v111h109v555h-109v109h-555v-109h-109v-555h109v-111h222v-111h111v0zM276 662h329v-551h-329v551v0z" />
    <glyph glyph-name="R" unicode="R" horiz-adv-x="838" 
d="M93 773v-773h220v218h111v-109h111v-109h220v109h-107v222h107v333h-109v109h-553v0zM315 662h218v-329h-218v329v0z" />
    <glyph glyph-name="S" unicode="S" horiz-adv-x="688" 
d="M65 109v-109h442v109h109v222h-109v111h-111v111h-109v111h329v109h-442v-109h-109v-111h109v-111h111v-111h109v-222h-329v0z" />
    <glyph glyph-name="T" unicode="T" horiz-adv-x="746" 
d="M262 664v-664h222v664h220v109h-662v-109h220v0z" />
    <glyph glyph-name="U" unicode="U" horiz-adv-x="843" 
d="M196 109v-109h553v773h-220v-662h-222v662h-220v-664h109v0z" />
    <glyph glyph-name="V" unicode="V" horiz-adv-x="924" 
d="M295 109v-109h333v109h111v111h109v553h-220v-553h-111v-109h-111v109h-111v553h-220v-553h109v-111h111v0z" />
    <glyph glyph-name="W" unicode="W" horiz-adv-x="1182" 
d="M93 773v-773h220v109h111v111h331v111h-109v109h-111v-109h-111v-109h-111v551h-220v0zM868 109v-109h220v773h-220v-553h-109v-111h109v0z" />
    <glyph glyph-name="X" unicode="X" horiz-adv-x="946" 
d="M93 220v-220h220v220h111v109h111v-109h111v-220h220v220h-109v111h-109v111h109v111h109v220h-220v-220h-111v-109h-111v109h-111v220h-220v-220h109v-111h109v-111h-109v-111h-109v0z" />
    <glyph glyph-name="Y" unicode="Y" horiz-adv-x="768" 
d="M273 331v-331h222v331h111v111h109v331h-220v-329h-222v329h-220v-331h109v-111h111v0z" />
    <glyph glyph-name="Z" unicode="Z" horiz-adv-x="829" 
d="M83 220v-220h662v109h-440v111h109v111h111v111h111v111h109v220h-662v-109h440v-111h-109v-111h-111v-111h-111v-111h-109v0z" />
    <glyph glyph-name="bracketleft" unicode="[" horiz-adv-x="600" 
d="M93 773v-884h440v109h-218v666h218v109h-440v0z" />
    <glyph glyph-name="backslash" unicode="\" horiz-adv-x="909" 
d="M676 109v-109h220v109h-109v111h-111v111h-111v111h-111v111h-111v111h-111v109h-220v-109h109v-111h111v-111h111v-111h111v-111h111v-111h111v0z" />
    <glyph glyph-name="bracketright" unicode="]" horiz-adv-x="601" 
d="M66 -2v-109h440v884h-440v-109h218v-666h-218v0z" />
    <glyph glyph-name="asciicircum" unicode="^" horiz-adv-x="888" 
d="M57 331v-109h220v109h111v109h111v-109h111v-109h220v109h-109v111h-111v109h-333v-109h-111v-111h-109v0z" />
    <glyph glyph-name="underscore" unicode="_" horiz-adv-x="1182" 
d="M93 -115v-107h995v107h-995v0z" />
    <glyph glyph-name="grave" unicode="`" horiz-adv-x="511" 
d="M254 553v-109h220v109h-109v111h-111v109h-220v-109h109v-111h111v0z" />
    <glyph glyph-name="a" unicode="a" horiz-adv-x="829" 
d="M182 109v-109h220v109h-107v331h220v-440h220v551h-553v-109h-109v-333h109v0z" />
    <glyph glyph-name="b" unicode="b" horiz-adv-x="791" 
d="M93 773v-773h553v109h109v333h-109v111h-333v220h-220v0zM315 440h218v-329h-218v329v0z" />
    <glyph glyph-name="c" unicode="c" horiz-adv-x="812" 
d="M182 109v-109h553v109h-440v331h220v-107h220v109h-109v109h-444v-109h-109v-333h109v0z" />
    <glyph glyph-name="d" unicode="d" horiz-adv-x="791" 
d="M144 109v-109h553v773h-220v-220h-333v-111h-109v-333h109v0zM257 440h218v-329h-218v329v0z" />
    <glyph glyph-name="e" unicode="e" horiz-adv-x="817" 
d="M182 109v-109h553v109h-440v111h440v222h-109v109h-444v-109h-109v-333h109v0zM295 440h218v-107h-218v107v0z" />
    <glyph glyph-name="f" unicode="f" horiz-adv-x="554" 
d="M84 664v-664h220v442h220v111h-218v111h218v109h-331v-109h-109v0z" />
    <glyph glyph-name="g" unicode="g" horiz-adv-x="788" 
d="M275 -113v-109h220v109h111v111h109v553h-553v-109h-109v-333h109v-111h220v-111h-107v0zM275 440h218v-329h-218v329v0z" />
    <glyph glyph-name="h" unicode="h" horiz-adv-x="797" 
d="M93 773v-773h220v440h222v-440h220v442h-109v111h-333v220h-220v0z" />
    <glyph glyph-name="i" unicode="i" horiz-adv-x="396" 
d="M88 549v-549h217v549h-217v0zM88 770v-107h217v107h-217v0z" />
    <glyph glyph-name="j" unicode="j" horiz-adv-x="426" 
d="M22 -113v-109h219v109h109v662h-219v-662h-109v0zM133 770v-107h217v107h-217v0z" />
    <glyph glyph-name="k" unicode="k" horiz-adv-x="785" 
d="M93 773v-773h220v218h111v-109h111v-109h220v109h-109v111h-109v111h109v111h109v109h-220v-109h-111v-109h-111v440h-220v0z" />
    <glyph glyph-name="l" unicode="l" 
d="M93 770v-770h217v770h-217v0z" />
    <glyph glyph-name="m" unicode="m" horiz-adv-x="1287" 
d="M93 551v-551h220v440h222v-440h222v440h222v-440h220v442h-109v109h-333v-107h-111v107h-553v0z" />
    <glyph glyph-name="n" unicode="n" horiz-adv-x="840" 
d="M93 551v-551h220v440h222v-440h220v442h-109v109h-553v0z" />
    <glyph glyph-name="o" unicode="o" horiz-adv-x="924" 
d="M184 109v-109h555v109h109v333h-109v109h-555v-109h-109v-333h109v0zM297 440h329v-329h-329v329v0z" />
    <glyph glyph-name="p" unicode="p" horiz-adv-x="790" 
d="M93 551v-773h220v220h333v111h109v333h-109v109h-553v0zM315 440h218v-329h-218v329v0z" />
    <glyph glyph-name="q" unicode="q" horiz-adv-x="790" 
d="M476 -2v-220h220v773h-553v-109h-109v-333h109v-111h333v0zM256 440h218v-329h-218v329v0z" />
    <glyph glyph-name="r" unicode="r" horiz-adv-x="549" 
d="M79 442v-442h220v442h220v109h-331v-109h-109v0z" />
    <glyph glyph-name="s" unicode="s" horiz-adv-x="697" 
d="M73 109v-109h442v109h109v111h-109v111h-220v111h329v109h-442v-109h-109v-111h109v-111h220v-111h-329v0z" />
    <glyph glyph-name="t" unicode="t" horiz-adv-x="565" 
d="M190 109v-109h331v109h-218v333h218v111h-220v109h-220v-553h109v0z" />
    <glyph glyph-name="u" unicode="u" horiz-adv-x="839" 
d="M192 109v-109h553v551h-220v-440h-222v440h-220v-442h109v0z" />
    <glyph glyph-name="v" unicode="v" horiz-adv-x="910" 
d="M288 109v-109h333v109h111v111h109v331h-220v-331h-111v-109h-111v109h-111v331h-220v-331h109v-111h111v0z" />
    <glyph glyph-name="w" unicode="w" horiz-adv-x="1281" 
d="M196 109v-109h444v109h109v442h-220v-440h-222v440h-220v-442h109v0zM753 109v-109h331v109h109v442h-220v-442h-220v0z" />
    <glyph glyph-name="x" unicode="x" horiz-adv-x="941" 
d="M93 109v-109h220v109h111v109h111v-109h111v-109h220v109h-109v111h-109v111h109v111h109v109h-220v-109h-111v-109h-111v109h-111v109h-220v-109h109v-111h109v-111h-109v-111h-109v0z" />
    <glyph glyph-name="y" unicode="y" horiz-adv-x="799" 
d="M382 -113v-109h220v109h109v664h-220v-440h-222v440h-220v-442h109v-111h331v-111h-107v0z" />
    <glyph glyph-name="z" unicode="z" horiz-adv-x="800" 
d="M93 220v-220h662v109h-440v111h220v111h220v220h-662v-109h440v-111h-220v-111h-220v0z" />
    <glyph glyph-name="braceleft" unicode="{" horiz-adv-x="654" 
d="M366 -4v-107h218v107h-218v0zM142 220v-220h220v220h-107v222h109v222h220v109h-220v-109h-222v-222h-109v-222h109v0z" />
    <glyph glyph-name="bar" unicode="|" 
d="M93 769v-991h217v991h-217v0z" />
    <glyph glyph-name="braceright" unicode="}" horiz-adv-x="654" 
d="M69 -2v-109h220v109h222v222h109v222h-109v220h-220v-220h107v-222h-109v-222h-220v0zM69 773v-107h218v107h-218v0z" />
    <glyph glyph-name="asciitilde" unicode="~" horiz-adv-x="926" 
d="M77 664v-109h220v109h109v109h-220v-109h-109v0zM410 664v-109h331v109h109v109h-220v-109h-220v0z" />
    <glyph glyph-name=".null" unicode="&#xe000;" horiz-adv-x="0" 
 />
    <glyph glyph-name="nonmarkingreturn" unicode="&#xe001;" horiz-adv-x="500" 
 />
  </font>
</defs>
</svg>
